<svg height="512" viewBox="0 0 512 512" width="512" xmlns="http://www.w3.org/2000/svg"><g id="Fill_out_line" data-name="Fill out line"><path d="m80 256h352v224h-352z" fill="#ba8b5d"/><path d="m112 328h80v152h-80z" fill="#d4e4f0"/><path d="m224 328h176v80h-176z" fill="#d4e4f0"/><path d="m168 24h176v128h-176z" fill="#529ddf"/><path d="m184 152h32v32h-32z" fill="#68737f"/><path d="m296 152h32v32h-32z" fill="#68737f"/><path d="m130.28 184-33.40587 100.21769a28.93114 28.93114 0 0 1 -27.44649 19.78231h-.00006a28.93114 28.93114 0 0 1 -26.21692-41.1657l36.78934-78.8343z" fill="#529ddf"/><path d="m230.86 184-6.19956 92.99333a28.93114 28.93114 0 0 1 -28.86707 27.00667h-3.933a28.93114 28.93114 0 0 1 -28.36937-34.605l17.079-85.395z" fill="#529ddf"/><path d="m130.28 184h50.29l-19.34855 96.74272a28.93114 28.93114 0 0 1 -28.36931 23.25728h-2.43229a28.93115 28.93115 0 0 1 -27.4465-38.08z" fill="#fae7cb"/><path d="m258.22334 304h-4.43925a28.93113 28.93113 0 0 1 -28.86709-30.85561l5.943-89.14439h50.28l5.95024 89.142a28.93114 28.93114 0 0 1 -28.8669 30.858z" fill="#fae7cb"/><path d="m320.13961 304h-3.92522a28.93114 28.93114 0 0 1 -28.8669-27.00427l-6.20749-92.99573h50.28992l17.079 85.395a28.93115 28.93115 0 0 1 -28.36931 34.605z" fill="#529ddf"/><path d="m381.57014 304h-2.42234a28.93114 28.93114 0 0 1 -28.36932-23.25728l-19.34855-96.74272h50.28l27.30668 81.92a28.93115 28.93115 0 0 1 -27.44647 38.08z" fill="#fae7cb"/><path d="m442.57242 304h-.01007a28.93114 28.93114 0 0 1 -27.44649-19.78231l-33.40586-100.21769h50.29l36.78934 78.8343a28.93114 28.93114 0 0 1 -26.21692 41.1657z" fill="#529ddf"/><path d="m240 48h32v24h24v32h-24v24h-32v-24h-24v-32h24z" fill="#d4e4f0"/><path d="m360 432h112v48h-112z" fill="#7ab355"/><path d="m40 432h112v48h-112z" fill="#7ab355"/><path d="m480 472v-40a7.99977 7.99977 0 0 0 -8-8h-112a7.99977 7.99977 0 0 0 -8 8v40h-152v-144a7.99977 7.99977 0 0 0 -8-8h-80a7.99977 7.99977 0 0 0 -8 8v80h16v-72h64v136h-24v-40a7.99977 7.99977 0 0 0 -8-8h-112a7.99977 7.99977 0 0 0 -8 8v40h-16v16h480v-16zm-112-32h96v32h-96zm-320 0h96v32h-96z"/><path d="m400 320h-176a7.99977 7.99977 0 0 0 -8 8v80a7.99977 7.99977 0 0 0 8 8h176a7.99977 7.99977 0 0 0 8-8v-80a7.99977 7.99977 0 0 0 -8-8zm-8 80h-160v-64h160z"/><path d="m69.42773 312c.86365 0 1.72065-.03552 2.57227-.09448v96.09448h16v-101.00513a36.87278 36.87278 0 0 0 11.93748-11.10278c.17544.25623.33962.51746.522.77051a36.53905 36.53905 0 0 0 29.96044 15.3374h2.43213a37.00811 37.00811 0 0 0 29.49365-14.749c.31171.4143.62354.82873.9541 1.23193a36.80027 36.80027 0 0 0 28.56055 13.51707h3.93311a36.94053 36.94053 0 0 0 28.97912-14.09863c.64722.82373 1.32221 1.62817 2.04236 2.398a37.06054 37.06054 0 0 0 26.96924 11.70063h4.439a37.061 37.061 0 0 0 26.97022-11.70166c.72-.76953 1.39477-1.574 2.04175-2.39746a36.94075 36.94075 0 0 0 28.97921 14.09912h3.92529a36.80027 36.80027 0 0 0 28.56055-13.51709c.33044-.40308.64221-.81738.95385-1.23157a37.00843 37.00843 0 0 0 29.49395 14.74866h2.42236a36.53964 36.53964 0 0 0 29.96-15.33691c.1825-.25318.34668-.51441.52222-.77076a36.86967 36.86967 0 0 0 11.94742 11.10743v101.00024h16v-96.09424c.85156.05884 1.70862.09424 2.57227.09424a36.93129 36.93129 0 0 0 33.46679-52.54883l-36.78955-78.83447a8 8 0 0 0 -7.24951-4.6167h-96v-16h8a7.99977 7.99977 0 0 0 8-8v-128a7.99977 7.99977 0 0 0 -8-8h-176a7.99977 7.99977 0 0 0 -8 8v128a7.99977 7.99977 0 0 0 8 8h8v16h-96a8 8 0 0 0 -7.24951 4.6167l-36.78955 78.835a36.93107 36.93107 0 0 0 33.46679 52.5483zm126.36573-16h-3.93311a20.93081 20.93081 0 0 1 -20.52441-25.03613h-.00006l15.79248-78.96387h35.18029l-5.3739 80.6123h-.00018l-.0003.00818-.256 3.84046a20.98509 20.98509 0 0 1 -20.88481 19.53906zm92.20654-136v16h-64v-16zm-14.49121 129.36768a20.72454 20.72454 0 0 1 -15.28565 6.63232h-4.439a20.93036 20.93036 0 0 1 -20.88483-22.319l5.44517-81.681h35.31177l5.45178 81.6748h-.00012a20.72248 20.72248 0 0 1 -5.59912 15.69288zm62.81787-1.02881a20.85779 20.85779 0 0 1 -16.18701 7.66113h-3.92529a20.9847 20.9847 0 0 1 -20.88428-19.53711l-5.63794-84.46289h35.17908l15.79284 78.96436a20.85525 20.85525 0 0 1 -4.3374 17.37451zm90.57861-96.33887 34.63473 74.21729a20.93156 20.93156 0 0 1 -18.9775 29.78271 20.90494 20.90494 0 0 1 -19.85742-14.312l-6.09851-18.2959-.00061-.002-23.79639-71.3901zm-25.47656 76.45483a20.931 20.931 0 0 1 -19.8584 27.54517h-2.42231a20.98779 20.98779 0 0 1 -20.5249-16.82617l-2.26953-11.34717v-.00049l-15.16534-75.82617h34.75562zm-81.42871-92.45483h-16v-16h16zm-144-144h160v112h-160zm16 128h16v16h-16zm-21.18866 32-17.43434 87.17334a20.98814 20.98814 0 0 1 -20.52495 16.82666h-2.43213a20.93141 20.93141 0 0 1 -19.85986-27.54224l25.48633-76.45776zm-120.35134 74.21777 34.63473-74.21777h34.08593l-23.79675 71.39014h-.00012l-.00153.00512-6.09759 18.29274a20.90435 20.90435 0 0 1 -19.85694 14.312 20.93133 20.93133 0 0 1 -18.96773-29.78223z"/><path d="m296 64h-16v-16a7.99977 7.99977 0 0 0 -8-8h-32a7.99977 7.99977 0 0 0 -8 8v16h-16a7.99977 7.99977 0 0 0 -8 8v32a7.99977 7.99977 0 0 0 8 8h16v16a7.99977 7.99977 0 0 0 8 8h32a7.99977 7.99977 0 0 0 8-8v-16h16a7.99977 7.99977 0 0 0 8-8v-32a7.99977 7.99977 0 0 0 -8-8zm-8 32h-16a7.99977 7.99977 0 0 0 -8 8v16h-16v-16a7.99977 7.99977 0 0 0 -8-8h-16v-16h16a7.99977 7.99977 0 0 0 8-8v-16h16v16a7.99977 7.99977 0 0 0 8 8h16z"/><circle cx="168" cy="408" r="8"/></g></svg>